<?xml version="1.0" encoding="UTF-8"?>
<svg id="_레이어_2" data-name="레이어 2" xmlns="http://www.w3.org/2000/svg" viewBox="0 0 159.32 133.79">
  <defs>
    <style>
      .cls-1 {
        fill: #a04c23;
      }
    </style>
  </defs>
  <g id="_레이어_1-2" data-name="레이어 1">
    <path class="cls-1" d="M79.75,133.79c-1.94,0-3.89-.38-5.76-1.16-1.88-.73-3.63-1.87-5.11-3.36l-49.54-49.54.08-.08-6.97-6.97C-4.15,56.08-4.15,29.07,12.45,12.47,20.49,4.43,31.19,0,42.56,0s22.07,4.43,30.11,12.47l6.98,6.98,6.98-6.98C94.67,4.43,105.37,0,116.74,0s22.07,4.43,30.11,12.47h0s0,0,0,0c8.04,8.04,12.47,18.73,12.47,30.11s-4.43,22.07-12.47,30.11l-6.97,6.97.08.08-49.68,49.68c-2.86,2.86-6.66,4.38-10.53,4.38ZM30.47,79.76l43.97,43.97c.71.71,1.55,1.26,2.49,1.62,2.74,1.14,5.77.54,7.8-1.49l44.11-44.1-.08-.08,12.54-12.54c6.56-6.56,10.17-15.28,10.17-24.56s-3.61-18-10.17-24.56h0c-6.56-6.56-15.28-10.17-24.55-10.17s-18,3.61-24.56,10.17l-12.54,12.54-12.54-12.54c-13.54-13.54-35.57-13.54-49.11,0-13.54,13.54-13.54,35.57,0,49.11l12.55,12.54-.08.08Z"/>
  </g>
</svg>