<?xml version="1.0" encoding="UTF-8"?>
<svg id="_레이어_2" data-name="레이어 2" xmlns="http://www.w3.org/2000/svg" viewBox="0 0 159.18 159.26">
  <defs>
    <style>
      .cls-1 {
        fill: #a04c23;
      }
    </style>
  </defs>
  <g id="_레이어_1-2" data-name="레이어 1">
    <path class="cls-1" d="M159.18,135.62v9.64c-1.39,7.33-6.57,12.7-13.99,13.99h-55.66L4,73.59c-5.17-6.12-5.34-14.32-.46-20.69C20.81,35.99,37.45,18.31,55.11,1.86c11.37-6.7,24.04,6.07,17.67,17.36-1.72,3.05-5.03,4.15-1.93,8.04,2.9,3.63,10.83,11.44,14.46,14.46,1.96,1.63,3.3,2.3,5.6.61,5.93-5.74,11.56-11.94,17.68-17.39l24.94,24.86-.16.78c-8.58,9.61-20.91,16.55-21.78,30.78-.48,7.78,3.3,14.69,6.52,21.46,3.83.59,7.8.5,11.62,1.13,13.32,2.19,24.45,12.09,28.1,25.08l1.33,6.6ZM64.03,96.44v-62.97c0-.1-1.05-1.04-1.32-1.48-3.07-5.09-3.48-10.01,0-15.07.62-.9,1.96-1.81,2.18-2.79.83-3.58-2.38-6.05-5.51-3.96-2.98,2-6.04,6.71-9.06,8.98l-.31,1.24.03,61.89,13.99,14.16ZM40.7,73.12V28.96l-22.06,22.19,22.06,21.97ZM104.76,70.32c2.73-8.5,9.87-14.21,15.85-20.37l-11.81-11.84-.78.16c-6.96,5.86-12.18,16.62-22.91,13.92-5.13-1.29-7.87-6.12-11.75-9.24v62.97l28.21,28.08,47.67-.25c-1.17-8.1-7.12-15.33-14.5-18.61-7.21-3.21-15.41-2.28-23.06-3.53l-5.5-12.07h-13.99l-.47-.47v-8.86h11.19c-.2-3.52-1.19-7.08-.31-10.57h-14.3v-9.33h16.48ZM149.85,143.09c-17.54-.34-35.03.59-52.55.15L11.67,57.91c-3.07,2.69-3.05,6.95-.36,9.93l81.95,81.93,50.81.13c3.46-.64,5.66-3.31,5.78-6.81Z"/>
  </g>
</svg>