<?xml version="1.0" encoding="UTF-8"?>
<svg id="_레이어_2" data-name="레이어 2" xmlns="http://www.w3.org/2000/svg" viewBox="0 0 128.67 159.89">
  <defs>
    <style>
      .cls-1 {
        fill: #a04c23;
      }
    </style>
  </defs>
  <g id="_레이어_1-2" data-name="레이어 1">
    <path class="cls-1" d="M128.67,10.77v71.72c-2.12,33.55-34.63,61.32-62.04,76.36-.95.52-2.04,1.35-3.13.93-22.45-14.17-46.98-29.63-57.83-55.05C1.6,95.19.34,86.09,0,75.79V10.77c13.75-.19,27.53.92,41-2.18,5.33-1.23,11.07-3.26,16.11-5.39C58.84,2.48,62.82-.07,64.34,0c1.72.08,5.95,2.73,7.91,3.54,7.33,3.04,15.84,5.45,23.72,6.51,10.74,1.46,21.87.39,32.71.72ZM64.18,34.96H24.54v48.54c0,5.02,4.89,15.23,7.59,19.62,6.81,11.07,19.52,21.31,31.19,26.92.41.2.69.43,1.2.31l-.33-95.4Z"/>
  </g>
</svg>