<?xml version="1.0" encoding="UTF-8"?>
<svg id="_레이어_2" data-name="레이어 2" xmlns="http://www.w3.org/2000/svg" viewBox="0 0 169 171.61">
  <defs>
    <style>
      .cls-1 {
        fill: #a04c23;
      }
    </style>
  </defs>
  <g id="_레이어_1-2" data-name="레이어 1">
    <g>
      <polygon class="cls-1" points="104.22 29.11 91.39 29.11 91.39 87.01 77.3 87.01 77.3 29.11 64.16 29.11 76.73 10.23 84.5 0 104.22 29.11"/>
      <path class="cls-1" d="M169,41.94l-8.45,32.86-8.02-9.05-.42.11-43.2,38.98-10.64-9.4,44.61-39.42c.37-.43.07-.5-.18-.77-1.22-1.33-3.84-3.02-5.31-4.39-.98-.92-1.98-1.92-2.81-2.97l34.43-5.95Z"/>
      <polygon class="cls-1" points="33.8 47.89 25.67 56.49 70.1 95.3 59.93 104.83 16.43 66.36 8.14 74.49 0 41.94 33.8 47.89"/>
      <path class="cls-1" d="M91.39,115.8v52.42c0,.56-.85,2.31-1.4,2.67-1.26.84-8.91.86-10.52.48-1.2-.29-2.17-1.7-2.17-2.84v-52.74h14.08Z"/>
      <path class="cls-1" d="M113.29,119.24l9.22-9.71.89-.26c5.9,4.94,11.39,10.34,17.12,15.46,3.51,3.14,7.42,5.95,10.81,9.22,1.81,1.75,2.91,2.16,1.57,4.72-.82,1.57-5.98,7.35-7.56,7.5-1.24.11-3.18-1.81-4.2-2.66-8.13-6.79-15.79-14.32-23.78-21.29-1.24-1.08-2.58-2.24-4.07-2.97Z"/>
      <path class="cls-1" d="M44.64,109.28c1.41-.28,7.82,8.17,9.36,9.34v.62s-29.29,26.44-29.29,26.44c-2.47,1.01-7.51-4.53-8.88-6.43-1.73-2.42-1.25-2.84.75-4.83,4.65-4.62,10.41-9.01,15.34-13.45,4.28-3.85,8.3-7.99,12.72-11.69Z"/>
    </g>
  </g>
</svg>