<?xml version="1.0" encoding="UTF-8"?>
<svg id="_레이어_2" data-name="레이어 2" xmlns="http://www.w3.org/2000/svg" viewBox="0 0 164.3 164.3">
  <defs>
    <style>
      .cls-1 {
        fill: #a04c23;
      }
    </style>
  </defs>
  <g id="_레이어_1-2" data-name="레이어 1">
    <g>
      <path class="cls-1" d="M164.3,0v27.92l-77.01,76.86,11.12,7.82c.79.12,6.18-6.49,6.96-6.35l6.62,6.56-12.42,12.32-.92-.26c-7.25-5.9-16.37-10.7-23.41-16.71-6.72-5.74-12.74-13.49-19.4-19.43l-16.7-23.75,12.36-12.66,6.56,6.62c.14.77-6.48,6.17-6.35,6.96l7.82,11.12L136.39.17l27.91-.17ZM98.51,58.86l-29.39,29.39,6.93,6.93,29.39-29.39-6.93-6.93Z"/>
      <polygon class="cls-1" points="42.67 164.3 42.35 164.3 0 121.78 6.89 114.89 49.41 157.4 42.67 164.3"/>
      <rect class="cls-1" x="33.04" y="110.34" width="12.52" height="29.31" transform="translate(-76.87 64.4) rotate(-45)"/>
      <rect class="cls-1" x="48.48" y="95.02" width="12.28" height="29.31" transform="translate(-61.56 70.76) rotate(-45.01)"/>
    </g>
  </g>
</svg>