<?xml version="1.0" encoding="UTF-8"?>
<svg id="_레이어_2" data-name="레이어 2" xmlns="http://www.w3.org/2000/svg" viewBox="0 0 174.04 174.27">
  <defs>
    <style>
      .cls-1 {
        fill: #a04c23;
      }
    </style>
  </defs>
  <g id="_레이어_1-2" data-name="레이어 1">
    <g>
      <path class="cls-1" d="M72.02,126.79v-11.09c0-1.1-1.96-3.47-3.17-3.74-4.24-.96-6.3,1.2-6.64,5.2-.28,3.24,1.17,6.74-.19,9.63h-9.63v-12.18c0-.98-2.47-2.54-3.47-2.7-8.47-1.34-6.03,9.84-5.97,14.88h-5.63c-9.05,0-11.68-16.37-14.54-22.89-1.79-4.08-6.27-5.13-9.96-7.49-5.55-3.55-11.79-8.5-12.4-15.58-.67-7.69-.41-19.81,0-27.65C2.74,7.76,55.04-15.45,91.25,11.43c15.55,11.54,22.22,27.81,22.94,46.84.24,6.27.81,22.1-1.46,27.28-1.86,4.24-6.06,7.18-9.08,10.53-1.97-.37-3.98-1.15-6.01-1.26-13.98-.81-21.34,14.67-12,25.08.48.54,2.12,1.42,1.99,1.97-1.19,1.22-2.33,2.6-3.87,3.41-.93.49-4.12,1.52-5.02,1.52h-6.72ZM26.49,52.01c-3.03.52-5.8,3.24-7.33,5.76-11.84,19.49,16.26,35.84,27.6,15.24,2.9-5.27,4.5-11.99-.95-16.15-3.72-2.84-14.83-5.62-19.33-4.85ZM85.76,52.02c-5.05.1-14.45,1.81-18.11,5.52-5.36,5.42-.59,17.05,4.56,21.27,11.65,9.54,28.89-1.14,25.36-15.55-1.43-5.84-5.32-11.36-11.81-11.24ZM55.57,83.62c-3.83.79-8.65,11.3-7.26,14.72,1.36,3.36,8.08,2.39,10.77,2.31.58-.02,1.37.37,2.22.36,3.61-.06,5.35-2.51,4.88-6-.19-1.38-4.09-9.32-5.04-10.22-1.41-1.34-3.72-1.55-5.57-1.17Z"/>
      <path class="cls-1" d="M172.57,53.86c2.86,2.7.8,11.26.01,14.85-5.55,25.18-20.09,36.45-36.6,53.89-.53.56-1.89,2.85-2.67,2.71l-19.47-19.37c16.19-15.68,31.92-31.82,47.96-47.65,2.5-2.47,6.64-8.34,10.77-4.43Z"/>
      <path class="cls-1" d="M81.46,142.42l13.22-13.78,18.57,17.81.4,1.07-13.27,13.62c2.58,3.26,7.71,5.24,5.41,10.14-3.97,8.43-11.55-3.61-12.81-3.39-14.16,16.59-34.48-4.52-18.41-18.74-2.53-2.97-9.14-6.97-5.61-11.43,2.17-2.75,5.22-1.85,7.61,0,1.31,1.01,3.38,4.04,4.18,4.55.27.17.39.23.73.17Z"/>
      <path class="cls-1" d="M94.82,104.71c4.6-.83,6.88,3.26,9.54,5.92,10.95,10.96,22.17,21.78,32.8,32.99,2.13,5.05-2.76,8.88-7.16,5.35-9.73-9.24-19.01-19.51-28.89-28.53-2.38-2.18-9.13-6.6-9.94-9.32-.78-2.65.89-5.9,3.66-6.39Z"/>
    </g>
  </g>
</svg>